/* XPM */
static char * archer_3_xpm[] = {
"15 32 3 1",
" 	c None",
".	c #FFFFFF",
"+	c #000000",
"...............",
"....+..........",
"....+..........",
"...+++.........",
"...+++.........",
"..+++++........",
"..+.+.+........",
"....+..........",
"....+..........",
"....+..........",
"...+++.........",
"....+..........",
"...+++.........",
"...+.+.........",
"...+.+.........",
"...............",
"....+.....+....",
"....+.....+....",
"...+++...+++...",
"...+++...+++...",
"..+++++.+++++..",
"..+.+.+.+.+.+..",
"....+.....+....",
"....+.....+....",
"....+.....+....",
"...+++...+++...",
"....+.....+....",
"...+++...+++...",
"...+.+...+.+...",
"...+.+...+.+...",
"...............",
"..............."};
