/* XPM */
static char * cross_xpm[] = {
"17 19 2 1",
" 	c #FFFFFF",
".	c #000000",
"                 ",
" ............... ",
" .     ...     . ",
" .     ...     . ",
" .     ...     . ",
" ............... ",
" ............... ",
" ............... ",
" ............... ",
" ..    ...    .. ",
"  .    ...    .  ",
"  ..   ...   ..  ",
"   .   ...   .   ",
"   ..  ...  ..   ",
"    .. ... ..    ",
"     .......     ",
"      .....      ",
"       ...       ",
"                 "};
