/* XPM */
static char * infantry_xpm[] = {
"16 32 6 1",
" 	c #FFFFFF",
".	c #FEFEFE",
"+	c #FDFDFD",
"@	c #FCFCFC",
"#	c #000000",
"$	c #FBFBFB",
"                ",
"                ",
"                ",
"                ",
"                ",
"                ",
"                ",
"                ",
"               .",
"              .+",
"              .@",
"              .+",
"               .",
"                ",
"                ",
"                ",
"                ",
"                ",
"   ###    ###   ",
"  #####  #####  ",
"  #####  #####  ",
"  #####  #####  ",
"   ###    ###   ",
"                ",
"                ",
"   ###    ###   ",
"  #####  #####  ",
"  #####  #####  ",
"  #####  #####  ",
"   ###    ###   ",
"               .",
"              .$"};
