/* XPM */
static char * invcheveron_xpm[] = {
"17 19 2 1",
" 	c #FFFFFF",
".	c #000000",
"                 ",
" ............... ",
" .             . ",
" .             . ",
" .             . ",
" .             . ",
" .      .      . ",
" .     ...     . ",
" .    .....    . ",
" ..  .......  .. ",
"  . .... .... .  ",
"  .....   .....  ",
"   ...     ...   ",
"   ..       ..   ",
"    ..     ..    ",
"     ..   ..     ",
"      .. ..      ",
"       ...       ",
"                 "};
