/* XPM */
static char * quarterly_xpm[] = {
"17 19 2 1",
" 	c #FFFFFF",
".	c #000000",
"                 ",
" ............... ",
" .      ........ ",
" .      ........ ",
" .      ........ ",
" .      ........ ",
" .      ........ ",
" .      ........ ",
" ............... ",
" ........     .. ",
"  .......     .  ",
"  .......    ..  ",
"   ......    .   ",
"   ......   ..   ",
"    .....  ..    ",
"     .... ..     ",
"      .....      ",
"       ...       ",
"                 "};
